<svg width="24" height="24" viewBox="0 0 24 24" fill="none" xmlns="http://www.w3.org/2000/svg">
<circle cx="12" cy="12" r="12" fill="#E3E3E3"/>
<path fill-rule="evenodd" clip-rule="evenodd" d="M8.8921 6.40557C10.2954 6.22682 11.5942 6.33861 12.5443 6.51907C13.0196 6.60933 13.3972 6.7148 13.6485 6.80402C13.6844 6.81676 13.7165 6.82877 13.7451 6.83993C13.8229 7.32286 13.8821 8.10914 13.8741 9.04829C13.8645 10.1697 13.7594 11.455 13.4993 12.6201C12.7201 16.1097 10.3021 16.6711 10.0584 16.6967C9.93999 16.7092 9.34475 16.7613 8.54093 16.3728C7.73906 15.9852 6.66522 15.128 5.64344 13.21C5.12639 12.2394 4.76758 10.9106 4.55271 9.75009C4.44648 9.17632 4.37832 8.65962 4.3433 8.27096C4.32854 8.10709 4.32008 7.97057 4.31677 7.86497C4.34668 7.84599 4.38105 7.82494 4.42011 7.80196C4.64211 7.67139 4.97576 7.50181 5.40517 7.32327C6.26318 6.9665 7.47381 6.58622 8.8921 6.40557ZM14.9745 6.27685C14.9408 6.13487 14.8701 6.03745 14.8296 5.98859C14.7851 5.93478 14.7396 5.89511 14.7066 5.86882C14.6407 5.81643 14.5708 5.77552 14.5136 5.74512C14.3954 5.68236 14.2489 5.62164 14.0885 5.56469C13.763 5.44914 13.3188 5.32754 12.7897 5.22705C11.7312 5.02601 10.2913 4.9016 8.72593 5.10099C7.17559 5.29847 5.85108 5.71358 4.90025 6.10894C4.42523 6.30645 4.03604 6.50212 3.75335 6.6684C3.61345 6.75069 3.48929 6.83183 3.39056 6.90803C3.34208 6.94544 3.28808 6.99057 3.2385 7.04175L3.23762 7.04266C3.207 7.07425 3.09963 7.18504 3.04713 7.35461C3.01642 7.4538 3.00822 7.5521 3.00464 7.60751C3.00024 7.67589 2.9993 7.75093 3.00045 7.82786C3.00278 7.98254 3.01408 8.17351 3.03349 8.38897C3.07244 8.8213 3.14646 9.37859 3.25957 9.98952C3.48341 11.1985 3.87199 12.6819 4.48276 13.8283C5.61243 15.9488 6.87442 17.028 7.96862 17.5569C9.06086 18.0848 9.9219 18.0334 10.1959 18.0047C10.8677 17.934 13.8536 17.068 14.7828 12.9067C15.0687 11.6263 15.1791 10.2441 15.1892 9.05952C15.1992 7.88684 15.1113 6.85295 14.9745 6.27685ZM9.6837 13.7608C10.0042 13.7271 10.3953 13.6369 10.7401 13.5494C10.7005 13.6232 10.6612 13.6865 10.6243 13.7342C10.4695 13.9346 10.354 14.0405 10.2471 14.1063C10.1456 14.1687 10.0133 14.2187 9.79083 14.2455C9.57258 14.2718 9.43485 14.2556 9.32264 14.2207C9.20402 14.1837 9.06765 14.1114 8.86815 13.9598C8.81023 13.9158 8.74343 13.8552 8.67386 13.7846C9.00534 13.7937 9.37279 13.7935 9.6837 13.7608ZM11.8252 12.0159C11.7263 11.9941 11.6405 11.9977 11.6029 11.9999C11.5553 12.0026 11.5102 12.0086 11.4734 12.0145C11.3994 12.0263 11.3177 12.044 11.2391 12.0625C11.1082 12.0934 10.9478 12.1358 10.7836 12.1791L10.6843 12.2052C10.2633 12.3159 9.83819 12.4222 9.54623 12.4529C9.24806 12.4842 8.83477 12.477 8.4412 12.4604C8.31879 12.4553 8.20795 12.4497 8.10477 12.4446L8.10472 12.4446L8.10443 12.4445L8.10348 12.4445C8.04106 12.4414 7.98144 12.4384 7.92376 12.4357L7.91727 12.4354L7.91724 12.4354H7.91723C7.79928 12.4299 7.63537 12.4223 7.5276 12.4337C7.42058 12.4449 7.28687 12.4809 7.16024 12.5729C7.02907 12.6683 6.94514 12.7951 6.90004 12.9222C6.82106 13.1449 6.86605 13.3481 6.89098 13.4399C6.94755 13.6481 7.0692 13.8579 7.1777 14.0214C7.40408 14.3624 7.75196 14.7634 8.07254 15.007C8.33503 15.2064 8.61015 15.3762 8.93154 15.4763C9.25934 15.5784 9.59013 15.5942 9.94793 15.5512C10.3126 15.5073 10.6373 15.4103 10.9362 15.2263C11.2298 15.0458 11.4583 14.8058 11.6651 14.5381C11.9095 14.2217 12.0976 13.7755 12.209 13.4412C12.2668 13.2679 12.3144 13.0934 12.3399 12.9466C12.3516 12.8793 12.3652 12.7828 12.3612 12.6829C12.3594 12.6378 12.3527 12.541 12.3101 12.4327C12.2684 12.3265 12.137 12.0846 11.8252 12.0159ZM10.3158 9.72711C10.7848 10.1831 10.7847 10.1832 10.7846 10.1833L10.7848 10.1831L10.3158 9.72711ZM10.7836 10.1843L10.7844 10.1836L10.7949 10.1732C10.8055 10.163 10.8226 10.1468 10.8452 10.1264C10.8911 10.0852 10.9566 10.0297 11.0336 9.97378C11.2087 9.84666 11.3576 9.78026 11.4423 9.77136C11.5712 9.75782 11.7449 9.79903 11.9258 9.87971C12.0089 9.91675 12.0789 9.95561 12.1273 9.98465C12.1511 9.99899 12.1689 10.0104 12.1793 10.0173L12.1891 10.0239L12.1893 10.0241C12.4844 10.2332 12.8933 10.1648 13.1041 9.87046C13.3156 9.57522 13.2476 9.16445 12.9524 8.953L12.5743 9.4809C12.9524 8.953 12.9523 8.9529 12.9521 8.95279L12.9512 8.95212L12.9497 8.95108L12.9461 8.94852L12.9361 8.94158C12.9283 8.93616 12.918 8.9292 12.9056 8.92094C12.8807 8.90444 12.8466 8.88258 12.8046 8.85735C12.7212 8.80726 12.6033 8.74189 12.4614 8.67861C12.1924 8.55863 11.7681 8.41476 11.3048 8.46345C10.8663 8.50954 10.4851 8.7468 10.2609 8.90958C10.1383 8.9986 10.0369 9.08467 9.9657 9.14869C9.92983 9.18096 9.9009 9.20831 9.88002 9.22852C9.86956 9.23865 9.86107 9.24704 9.85469 9.25342L9.84669 9.26147L9.8439 9.26431L9.84281 9.26543L9.84212 9.26613C9.84202 9.26624 9.84192 9.26634 10.3134 9.72472L9.84192 9.26634C9.58876 9.52672 9.59461 9.94302 9.85499 10.1962C10.1149 10.4488 10.53 10.4435 10.7833 10.1846L10.7836 10.1843ZM6.53393 10.6301C6.53402 10.63 6.53412 10.6299 6.06512 10.1739L6.53412 10.6299L6.53393 10.6301ZM6.53366 10.6304L6.53293 10.6311L6.53292 10.6311L6.5326 10.6314C6.2793 10.8903 5.86414 10.8956 5.60428 10.643C5.3439 10.3898 5.33805 9.9735 5.59121 9.71312L6.06266 10.1715C5.59121 9.71312 5.59131 9.71302 5.59141 9.71291L5.59209 9.71221L5.59319 9.7111L5.59598 9.70825L5.60398 9.7002C5.61036 9.69382 5.61885 9.68543 5.62931 9.67531C5.65018 9.65509 5.67912 9.62774 5.71499 9.59547C5.78616 9.53145 5.88762 9.44539 6.01023 9.35637C6.23444 9.19358 6.61558 8.95633 7.0541 8.91023C7.51738 8.86154 7.94167 9.00542 8.21071 9.1254C8.35261 9.18868 8.47049 9.25404 8.55386 9.30413C8.59586 9.32936 8.62994 9.35123 8.65485 9.36772C8.66732 9.37599 8.67756 9.38295 8.6854 9.38836L8.69537 9.39531L8.69899 9.39786L8.70045 9.3989L8.7014 9.39958C8.70154 9.39968 8.70168 9.39978 8.3236 9.92769L8.70168 9.39978C8.99693 9.61124 9.06486 10.022 8.85341 10.3172C8.64259 10.6116 8.23367 10.68 7.93862 10.4709L7.93837 10.4707L7.92858 10.4641C7.91815 10.4572 7.90043 10.4458 7.87657 10.4314C7.82823 10.4024 7.75815 10.3635 7.67508 10.3265C7.49417 10.2458 7.32048 10.2046 7.19157 10.2181C7.10694 10.227 6.95798 10.2934 6.7829 10.4206C6.70586 10.4765 6.64037 10.532 6.5945 10.5732C6.57186 10.5936 6.55475 10.6098 6.54421 10.62L6.53366 10.6304ZM16.5684 16.9677C16.5684 16.9677 16.5549 17.0202 16.55 17.0545C16.4756 17.5708 17.7144 17.8341 17.8565 17.3322C17.8659 17.2989 17.8749 17.2454 17.8749 17.2454C17.9555 16.8965 18.0575 16.611 18.1811 16.389C18.3047 16.167 18.4641 15.9861 18.6594 15.8461C18.8577 15.7069 19.1034 15.584 19.3966 15.4776C19.7056 15.3714 19.9802 15.2325 20.2205 15.0607C20.4637 14.8896 20.6674 14.6799 20.8316 14.4315C20.9965 14.1801 21.1152 13.8838 21.1877 13.5427C21.2932 13.0463 21.2682 12.5874 21.1127 12.166C20.9608 11.7423 20.6968 11.3822 20.3205 11.0857C19.9449 10.7863 19.477 10.577 18.9166 10.4579C18.405 10.3491 17.9168 10.3472 17.4521 10.4522C16.9904 10.5577 16.5911 10.7737 16.2544 11.1C15.9183 11.4232 15.6814 11.8567 15.5435 12.4003C15.4057 12.944 16.8423 13.0138 16.9322 12.6955C17.0222 12.3772 17.1589 12.1309 17.3423 11.9567C17.5264 11.7794 17.7354 11.6646 17.9693 11.6125C18.2032 11.5604 18.4374 11.5592 18.6719 11.6091C18.9308 11.6641 19.1536 11.7687 19.3405 11.923C19.531 12.0749 19.6692 12.2635 19.755 12.4886C19.8408 12.7137 19.8549 12.9618 19.7973 13.2329C19.7494 13.4582 19.6631 13.6547 19.5383 13.8224C19.4136 13.99 19.2629 14.1299 19.0863 14.2419C18.9097 14.354 18.7177 14.4485 18.5104 14.5254C18.1909 14.6357 17.9087 14.7731 17.6637 14.9374C17.4186 15.1018 17.2057 15.3398 17.0249 15.6515C16.8471 15.9638 16.6949 16.4026 16.5684 16.9677ZM16.0616 19.5767C16.2038 19.7915 16.3997 19.9255 16.6494 19.9786C16.8169 20.0142 16.9779 20.0054 17.1325 19.9523C17.287 19.8992 17.4199 19.8129 17.5313 19.6933C17.6463 19.5714 17.7216 19.4266 17.7572 19.2591C17.8103 19.0094 17.7643 18.7768 17.6191 18.5613C17.4776 18.3435 17.2835 18.2083 17.0368 18.1559C16.7871 18.1028 16.5533 18.147 16.3355 18.2885C16.1182 18.4269 15.9831 18.621 15.93 18.8707C15.8763 19.1235 15.9202 19.3588 16.0616 19.5767Z" fill="#DE1A2D"/>
</svg>
